# xmcd
#
# Track frame offsets:
#	900
#	14326
#	30677
#	43953
#	60379
#	74330
#	85806
#	99757
#	111233
#	124584
#
# Disc length: 1864 seconds
#
# Revision: 0
# Processed by: cddbd v1.5.2PL0 Copyright (c) Steve Scherf et al.
# Submitted via: cddb-tool 0.4.7
#
DISCID=7d073c0a
DTITLE=Susanna Hoffs - Someday
DYEAR=2012
DGENRE=Rock
TTITLE0=November Sun
TTITLE1=Always Enough
TTITLE2=Picture Me
TTITLE3=One Day
TTITLE4=Holding My Breath
TTITLE5=All I Need
TTITLE6=Raining
TTITLE7=Regret
TTITLE8=This Is The Place
TTITLE9=True
EXTD=
EXTT0=
EXTT1=
EXTT2=
EXTT3=
EXTT4=
EXTT5=
EXTT6=
EXTT7=
EXTT8=
EXTT9=
PLAYORDER=
